# xmcd
#
# Track frame offsets:
# 150
# 13065
# 25259
# 38147
# 52900
# 66468
# 81801
# 97508
# 110536
# 125433
# 140767
# 155152
# 169262
# 183779
# 196251
# 209266
# 220373
# 233054
# 247466
# 261818
# 276682
# 294128
# 314240
# 325201
# 346525
#
# Disc length: 4765 seconds
#
#
# Revision: 0
# Processed by: cddbd v1.5.1PL0 Copyright (c) Steve Scherf et al.
# Submitted via: FreeRIP 2.53 
#
DISCID=7b129b19
DTITLE=Nino Ferrer - (Vol 02-12) Les années 60
DYEAR=1965
DGENRE=Chanson
TTITLE0=Le roi d'Angleterre
TTITLE1=Il me faudra Natacha
TTITLE2=Les petites jeunes filles de bonne famille
TTITLE3=Monsieur Machin
TTITLE4=Mamadou mémé
TTITLE5=Oerythia
TTITLE6=Les yeux de Laurence
TTITLE7=Non Ti Capisco Piu
TTITLE8=Je vends des robes
TTITLE9=La rua Madureira
TTITLE10=Tchouk ou Tchouk
TTITLE11=Le show boat de nos amours
TTITLE12=Agata
TTITLE13=Un premier jour sans toi
TTITLE14=Justine
TTITLE15=Les hommes à tout faire
TTITLE16=Oui mais ta mère n'est pas d'accord
TTITLE17=Le blues anti bourgeois
TTITLE18=Viens tous les soirs
TTITLE19=L'amour la mort les enterrements
TTITLE20=Shake sake Ferrer
TTITLE21=C'est irréparable (Un an d'amour)
TTITLE22=Pour oublier qu'on s'est aimé
TTITLE23=Ma vie pour rien
TTITLE24=Le blues des rues désertes
EXTD=
EXTT0=
EXTT1=
EXTT2=
EXTT3=
EXTT4=
EXTT5=
EXTT6=
EXTT7=
EXTT8=
EXTT9=
EXTT10=
EXTT11=
EXTT12=
EXTT13=
EXTT14=
EXTT15=
EXTT16=
EXTT17=
EXTT18=
EXTT19=
EXTT20=
EXTT21=
EXTT22=
EXTT23=
EXTT24=
PLAYORDER=
